<?xml version="1.0" encoding="utf-8"?>
<!-- Generator: Adobe Illustrator 16.0.4, SVG Export Plug-In . SVG Version: 6.00 Build 0)  -->
<!DOCTYPE svg PUBLIC "-//W3C//DTD SVG 1.1//EN" "http://www.w3.org/Graphics/SVG/1.1/DTD/svg11.dtd">
<svg version="1.1" id="広島大学" xmlns="http://www.w3.org/2000/svg" xmlns:xlink="http://www.w3.org/1999/xlink" x="0px"
	 y="0px" width="133.229px" height="42.52px" viewBox="0 0 133.229 42.52" enable-background="new 0 0 133.229 42.52"
	 xml:space="preserve">
<g>
	<g>
		<path fill="#00A051" d="M26.648,35.451c-3.829-3.1-3.172-8.735-3.283-12.337c-0.031-0.928-0.015-2.473-0.278-3.802
			c-0.371-1.874-1.352-3.477-3.329-3.104c-1.365,0.258-2.201,0.971-2.633,2.42c-0.127-0.95-0.356-1.89-0.71-2.636
			C13.667,9.075,6.109,5.477,6.325,5.667c3.692,3.261,4.956,7.99,4.956,13.192c0,0.929-1.704,17.957,1.328,18
			c1.613,0.023,3.929-11.803,4.453-14.432c0.214,1.175,0.586,2.4,1.07,3.316C21.174,32.535,26.872,35.632,26.648,35.451"/>
		<path fill="#187FC4" d="M17.456,11.875c0,1.295,1.05,2.346,2.346,2.346c1.296,0,2.347-1.051,2.347-2.346
			c0-1.296-1.051-2.347-2.347-2.347C18.506,9.528,17.456,10.579,17.456,11.875"/>
	</g>
	<g>
		<polygon points="112.756,18.275 111.887,16.167 110.353,16.167 111.223,18.275 		"/>
		<polygon points="117.2,18.283 116.274,16.155 114.748,16.15 115.683,18.288 		"/>
		<polygon points="121.682,18.85 122.57,16.151 120.808,16.151 119.84,18.85 108.808,18.849 108.808,22.144 110.606,22.144 
			110.606,19.603 122.273,19.603 122.273,22.15 124.073,22.15 124.073,18.853 		"/>
		<path d="M117.272,24.583l3.83-3.402l-9.238-0.001v0.762h6.926l-2.371,2.062h-0.956l-0.017,1.282h-6.652v0.764h6.687
			c0,0.857,0.007,1.879,0.007,2.542c0,0.718-1.097,0.971-1.097,0.971l-0.004,1.361c0,0,2.656-0.626,2.804-2.048
			c0.059-0.566,0.071-1.71,0.064-2.825h6.817v-0.764h-6.825L117.272,24.583z"/>
	</g>
	<path d="M94.068,24.911c-0.498-0.959-0.813-2.161-0.915-3.708H99.7v-0.873h-6.636c-0.057-0.977-0.062-1.651-0.062-1.945
		l0.013-2.219h-1.951c0,0,0.02,1.513,0.02,2.134c0,0.241-0.005,0.955-0.044,2.03h-6.62v0.846h6.532
		c-0.155,1.573-0.429,2.732-0.938,3.709c-1.883,3.604-5.598,4.496-5.598,4.496v1.286c0,0,5.169-1.179,7.027-5.886
		c0.189-0.481,0.465-1.395,0.608-1.921c0.141,0.509,0.415,1.444,0.6,1.908c1.862,4.678,7.058,5.917,7.058,5.917v-1.297
		C99.709,29.387,95.926,28.487,94.068,24.911"/>
	<path d="M63.65,22.088l9.754-0.008v-4.959l-5.112-0.001l0.348-0.958h-1.758l-0.348,0.958l-4.664,0.001v8.985l2.519,0.006v2.803
		h-2.535v-2.024H60.11v2.642l10.349,0.004l0.009-2.608h-1.771v1.986h-2.528v-2.803h7.345c0.033,0.595-0.032,1.264-0.188,1.808
		c-0.305,1.059-2.294,2.773-2.294,2.773h1.812c0,0,1.851-0.856,2.313-2.734c0.312-1.263,0.195-2.466,0.195-2.466l-11.698-0.001
		l-0.003-1.363h11.701v-0.674H63.65V22.088z M71.683,21.466H63.65v-1.573h8.032V21.466z M63.65,17.736h8.032v1.521H63.65V17.736z"/>
	<g>
		<path d="M48.41,24.178l-1.771,0.005c0,0,2.004,3.71,2.162,4.454l-6.958,0.424c0.595-1.269,1.309-2.961,1.896-4.728
			c0.605-1.822,0.726-2.53,1.029-3.995h-1.853c0,0-0.266,1.636-0.978,3.948c-0.854,2.774-2.196,5.489-2.196,5.489l9.312-0.518
			c0.198,0.54,0.371,1.412,0.371,1.412h1.579c0,0-0.601-2.63-1.325-4.15C49.059,25.217,48.41,24.178,48.41,24.178"/>
		<path d="M51.033,18.448V17.78h-6.011v-1.584h-1.68v1.584l-5.912-0.01c0,0,0,5.009-0.059,6.147
			c-0.203,3.987-1.605,6.768-1.605,6.768h1.682c-0.006-0.022,1.418-2.656,1.635-6.726c0.043-0.783,0.034-4.006,0.025-5.512H51.033z"
			/>
	</g>
</g>
<g>
</g>
<g>
</g>
<g>
</g>
<g>
</g>
<g>
</g>
<g>
</g>
</svg>
