<?xml version="1.0" encoding="utf-8"?>
<!-- Generator: Adobe Illustrator 16.0.4, SVG Export Plug-In . SVG Version: 6.00 Build 0)  -->
<svg version="1.2" baseProfile="tiny" id="レイヤー_1"
	 xmlns="http://www.w3.org/2000/svg" xmlns:xlink="http://www.w3.org/1999/xlink" x="0px" y="0px" width="158.741px"
	 height="42.519px" viewBox="0 0 158.741 42.519" overflow="scroll" xml:space="preserve">
<path display="none" fill="#D8281C" d="M158.241,0.5v41.519H0.5V0.5H158.241 M158.741,0H0v42.519h158.741V0L158.741,0z"/>
<g>
	<path fill="#231815" d="M16.198,10.944H7.011v2.495c0,1.823-0.168,4.45-1.295,6.201c-0.144-0.132-0.492-0.372-0.684-0.456
		c1.08-1.679,1.175-4.042,1.175-5.745v-3.262h4.426V8.473l1.067,0.072c-0.012,0.084-0.084,0.144-0.24,0.168v1.463h4.737V10.944z
		 M13.548,14.842c1.103,1.379,2.314,3.226,2.794,4.425l-0.792,0.396c-0.12-0.324-0.3-0.708-0.516-1.127
		c-2.698,0.18-5.565,0.336-7.34,0.432c-0.024,0.096-0.096,0.144-0.18,0.156l-0.372-0.972l1.439-0.06
		c0.719-1.691,1.559-4.377,2.015-6.32l1.08,0.288c-0.024,0.084-0.132,0.144-0.288,0.156c-0.468,1.751-1.259,4.162-1.967,5.853
		l5.205-0.24c-0.516-0.899-1.175-1.859-1.799-2.65L13.548,14.842z"/>
	<path fill="#231815" d="M27.24,18.692h-5.829v0.587h-0.755v-2.542l0.983,0.072c-0.012,0.084-0.072,0.132-0.228,0.156v1.068h2.147
		v-1.583l0.996,0.06c-0.012,0.084-0.084,0.144-0.24,0.168v1.355h2.17v-1.343l0.996,0.072c-0.012,0.072-0.072,0.132-0.24,0.156
		V18.692z M30.91,14.794h-8.467v0.923h7.412l0.18-0.024l0.456,0.096c-0.012,0.06-0.024,0.156-0.048,0.228
		c-0.18,2.147-0.348,2.986-0.671,3.31c-0.24,0.24-0.492,0.3-1.176,0.3c-0.312,0-0.719-0.012-1.151-0.036
		c-0.012-0.228-0.096-0.516-0.204-0.72c0.624,0.072,1.235,0.072,1.439,0.072c0.228,0,0.336-0.024,0.444-0.108
		c0.204-0.204,0.36-0.875,0.504-2.482h-7.988V9.457h2.818c0.168-0.348,0.336-0.743,0.432-1.031l1.031,0.228
		c-0.024,0.072-0.108,0.12-0.24,0.12c-0.096,0.192-0.24,0.444-0.384,0.684h3.79v3.802h-6.644v0.887h8.467V14.794z M28.284,10.081
		h-5.841v0.983h5.841V10.081z M22.443,12.635h5.841V11.64h-5.841V12.635z"/>
	<path fill="#231815" d="M45.658,12.827h-4.689c0.779,2.867,2.327,5.073,4.881,6.021c-0.204,0.18-0.468,0.516-0.6,0.755
		c-2.507-1.031-4.03-3.154-4.917-6.044c-0.552,2.375-1.859,4.725-4.953,6.057c-0.12-0.216-0.372-0.504-0.576-0.684
		c3.166-1.283,4.354-3.682,4.809-6.105h-4.629V12h4.761c0.156-1.248,0.144-2.471,0.156-3.514l1.127,0.06
		c-0.012,0.108-0.108,0.168-0.264,0.204c-0.012,0.948-0.024,2.075-0.168,3.25h5.062V12.827z"/>
	<path fill="#231815" d="M60.478,15.549v0.756H55.5v2.327c0,1.007-0.576,1.019-2.794,1.019c-0.06-0.228-0.216-0.563-0.348-0.792
		c0.612,0.024,1.151,0.036,1.535,0.036c0.696,0,0.78,0,0.78-0.264v-2.327h-4.917v-0.756h4.917v-1.043l0.563,0.036
		c0.612-0.312,1.247-0.731,1.739-1.14h-5.217v-0.719h6.069l0.144-0.048l0.624,0.396c-0.036,0.06-0.108,0.096-0.18,0.108
		c-0.708,0.672-1.847,1.451-2.915,1.979v0.432H60.478z M50.823,11.244v1.931h-0.768v-2.663h1.871
		c-0.228-0.468-0.672-1.104-1.067-1.571l0.671-0.324c0.48,0.528,0.996,1.235,1.211,1.715l-0.348,0.18h2.542
		c-0.18-0.54-0.576-1.283-0.947-1.835l0.695-0.264c0.432,0.6,0.864,1.403,1.02,1.919l-0.42,0.18h2.099
		c0.468-0.552,1.055-1.391,1.379-1.967c0.756,0.276,0.852,0.335,0.948,0.396c-0.036,0.072-0.132,0.108-0.252,0.096
		c-0.3,0.432-0.731,0.995-1.151,1.475h1.955v2.663h-0.792v-1.931H50.823z"/>
	<path fill="#231815" d="M11.113,29.852h5.001v0.815H5.308v-0.815h4.953v-7.184H5.896v-0.803h9.667v0.803h-4.45V29.852z"/>
	<path fill="#231815" d="M28.09,27.549v0.756h-4.978v2.327c0,1.007-0.576,1.019-2.794,1.019c-0.06-0.228-0.216-0.563-0.348-0.792
		c0.612,0.024,1.151,0.037,1.535,0.037c0.696,0,0.78,0,0.78-0.264v-2.327h-4.917v-0.756h4.917v-1.044l0.563,0.037
		c0.612-0.312,1.247-0.732,1.739-1.141h-5.217v-0.719h6.069l0.144-0.049l0.624,0.396c-0.036,0.061-0.108,0.096-0.18,0.107
		c-0.708,0.672-1.847,1.451-2.915,1.979v0.432H28.09z M18.436,23.244v1.932h-0.768v-2.663h1.871
		c-0.228-0.468-0.672-1.104-1.067-1.571l0.671-0.324c0.48,0.528,0.996,1.235,1.211,1.715l-0.348,0.18h2.542
		c-0.18-0.54-0.576-1.283-0.947-1.835l0.695-0.264c0.432,0.6,0.864,1.403,1.02,1.919l-0.42,0.18h2.099
		c0.468-0.552,1.055-1.391,1.379-1.967c0.756,0.276,0.852,0.335,0.948,0.396c-0.036,0.072-0.132,0.108-0.252,0.096
		c-0.3,0.432-0.731,0.995-1.151,1.475h1.955v2.663h-0.792v-1.932H18.436z"/>
	<path fill="#231815" d="M33.002,25.091c0.276-0.624,0.6-1.632,0.768-2.315l0.924,0.265c-0.024,0.071-0.108,0.107-0.252,0.119
		c-0.18,0.588-0.48,1.451-0.756,2.051h1.787v0.744h-6.32V25.21h4.222L33.002,25.091z M35.269,21.876v0.72h-5.805v-0.72h2.495v-1.403
		l1.02,0.06c-0.012,0.084-0.084,0.144-0.24,0.168v1.175H35.269z M29.98,31.626V27.07h4.749v4.485H33.95v-0.612h-3.202v0.684H29.98z
		 M30.903,22.896c0.276,0.611,0.504,1.428,0.576,1.955l-0.708,0.168c-0.06-0.527-0.276-1.355-0.528-1.979L30.903,22.896z
		 M33.95,27.789h-3.202v2.436h3.202V27.789z M39.778,21.157l0.528,0.264c-0.012,0.06-0.06,0.096-0.108,0.12
		c-0.456,1.02-1.091,2.314-1.751,3.574c1.295,1.211,1.835,2.111,1.835,2.975c0,1.883-1.307,1.883-2.087,1.883
		c-0.18,0-0.372,0-0.552-0.012c-0.012-0.217-0.12-0.564-0.276-0.792c0.264,0.024,0.516,0.036,0.744,0.036
		c0.804,0,1.379-0.036,1.379-1.14c0-0.779-0.588-1.619-1.895-2.818c0.587-1.188,1.104-2.314,1.511-3.286H36.72v9.654h-0.78V21.193
		h3.682L39.778,21.157z"/>
	<path fill="#231815" d="M43.947,23.664c-0.084-0.384-0.312-0.972-0.54-1.451h-0.552c-0.348,0.588-0.756,1.127-1.151,1.535
		c-0.156-0.132-0.432-0.324-0.624-0.42c0.708-0.671,1.403-1.799,1.811-2.915l0.912,0.3c-0.024,0.083-0.132,0.12-0.252,0.108
		c-0.096,0.24-0.216,0.492-0.335,0.731h3.322v0.66H44.21c0.204,0.408,0.372,0.863,0.456,1.176L43.947,23.664z M51.107,27.705
		l0.18-0.012l0.468,0.072c0,0.084-0.024,0.168-0.036,0.252c-0.312,3.022-0.552,3.07-1.943,3.07c-0.276,0-0.6,0-0.947-0.023
		c-0.012-0.24-0.096-0.54-0.228-0.756c0.6,0.072,1.175,0.072,1.379,0.072c0.216,0,0.336-0.013,0.432-0.108
		c0.192-0.168,0.324-0.672,0.456-1.858h-3.766v3.201H46.31v-2.962c-1.2,1.199-3.022,2.219-4.642,2.747
		c-0.12-0.192-0.348-0.492-0.516-0.648c1.547-0.432,3.298-1.319,4.425-2.338h-2.554l-0.132,0.443l-0.792-0.12
		c0.252-0.768,0.552-1.979,0.744-2.927h3.466v-1.307h-4.114v-0.695h8.803v2.697h-3.898v1.199H51.107z M46.31,26.505h-2.819
		c-0.083,0.396-0.191,0.816-0.288,1.199h3.106V26.505z M48.576,20.701c-0.024,0.084-0.12,0.108-0.24,0.108
		c-0.108,0.252-0.228,0.504-0.36,0.744h4.27v0.66H49.38c0.312,0.408,0.587,0.863,0.731,1.199L49.404,23.7
		c-0.156-0.408-0.516-1.008-0.899-1.487h-0.936c-0.384,0.576-0.84,1.092-1.308,1.463c-0.144-0.132-0.419-0.336-0.611-0.443
		c0.815-0.624,1.571-1.691,1.991-2.819L48.576,20.701z M47.101,24.503v1.307h3.106v-1.307H47.101z"/>
	<path fill="#231815" d="M53.32,29.42h10.782v0.839H53.32V29.42z M54.352,22.224h8.719v0.84h-8.719V22.224z"/>
	<path fill="#231815" d="M67.479,25.978v-1.895c-0.54,0.768-1.248,1.486-1.907,1.883c-0.108-0.156-0.324-0.408-0.479-0.539
		c0.755-0.396,1.583-1.2,2.111-2.004h-1.931v-0.672h2.207v-2.266l0.947,0.06c-0.012,0.072-0.072,0.132-0.228,0.156v2.05h2.183v0.672
		h-2.183v0.168c0.492,0.288,1.907,1.211,2.243,1.476l-0.444,0.587c-0.336-0.299-1.188-0.959-1.799-1.391v1.715H67.479z
		 M68.175,28.065c-0.012,0.192-0.048,0.396-0.084,0.588c0.744,0.516,1.643,1.212,2.135,1.644l-0.54,0.551
		c-0.396-0.396-1.139-0.995-1.823-1.499c-0.348,0.743-1.02,1.464-2.315,2.052c-0.096-0.181-0.3-0.469-0.443-0.612
		c1.763-0.792,2.219-1.787,2.327-2.723H65.26v-0.72h2.195v-1.104l0.971,0.061c-0.012,0.084-0.072,0.144-0.228,0.168v0.875h2.23v0.72
		H68.175z M66.124,20.857c0.324,0.42,0.624,1.008,0.732,1.392l-0.612,0.264c-0.108-0.396-0.396-0.996-0.708-1.439L66.124,20.857z
		 M68.798,22.296c0.252-0.408,0.563-1.056,0.72-1.487l0.827,0.312c-0.036,0.072-0.12,0.096-0.24,0.096
		c-0.192,0.384-0.503,0.948-0.768,1.319L68.798,22.296z M72.792,29.996c-0.036,0.049-0.108,0.084-0.216,0.096
		c-0.48,0.528-1.511,1.176-2.411,1.535c-0.12-0.155-0.36-0.407-0.54-0.539c0.899-0.348,1.907-0.972,2.387-1.499L72.792,29.996z
		 M70.885,23.016h1.631c0.108-0.384,0.216-0.84,0.3-1.235h-2.351v-0.72h5.817v0.72h-2.639c-0.084,0.359-0.216,0.827-0.36,1.235
		h2.567v6.308h-4.965V23.016z M75.083,24.911v-1.247h-3.454v1.247H75.083z M75.083,26.782v-1.247h-3.454v1.247H75.083z
		 M75.083,28.677v-1.271h-3.454v1.271H75.083z M74.411,29.636c0.708,0.432,1.619,1.092,2.099,1.547
		c-0.072,0.049-0.144,0.096-0.636,0.443c-0.432-0.443-1.343-1.115-2.063-1.582L74.411,29.636z"/>
	<path fill="#231815" d="M78.388,22.919c0,1.068-0.204,2.363-0.696,3.131c-0.444-0.264-0.516-0.3-0.6-0.336
		c0.432-0.66,0.624-1.883,0.647-2.891L78.388,22.919z M78.855,20.461l1.019,0.072c-0.012,0.084-0.072,0.144-0.228,0.156v10.902
		h-0.792V20.461z M80.702,24.347c-0.168-0.455-0.539-1.211-0.863-1.763l0.552-0.276c0.348,0.54,0.73,1.248,0.887,1.691
		L80.702,24.347z M84.913,24.503h3.346v0.684h-7.424v-0.684h3.238v-0.876h-2.339v-0.624h2.339v-0.815h-2.818v-0.648h2.818v-1.079
		l1.079,0.072c-0.013,0.084-0.071,0.144-0.239,0.168v0.839h2.926v0.648h-2.926v0.815h2.434v0.624h-2.434V24.503z M87.178,25.99
		v4.762c0,0.779-0.312,0.863-1.979,0.863c-0.035-0.203-0.144-0.491-0.252-0.695c0.336,0.012,0.648,0.023,0.876,0.023
		c0.491,0,0.552,0,0.552-0.191v-1.067h-3.73v1.907h-0.779V25.99H87.178z M86.375,26.65h-3.73v0.899h3.73V26.65z M82.645,29.073h3.73
		v-0.911h-3.73V29.073z"/>
	<path fill="#231815" d="M92.331,22.392v1.344h2.41v0.707h-5.564v-0.707h2.398v-1.344h-1.919v-0.695h1.919v-1.211l0.984,0.06
		c-0.013,0.084-0.072,0.144-0.229,0.156v0.996h1.906v0.695H92.331z M92.534,26.362c0.252-0.479,0.564-1.271,0.721-1.786l0.852,0.287
		c-0.037,0.072-0.12,0.107-0.252,0.107c-0.192,0.42-0.492,1.057-0.768,1.488h1.439v0.707h-2.207v1.391h2.051v0.709h-2.051v2.361
		h-0.756v-2.361H89.5v-0.709h2.062v-1.391h-2.219v-0.707h3.406L92.534,26.362z M90.567,26.386c-0.06-0.432-0.287-1.127-0.551-1.655
		l0.623-0.168c0.264,0.516,0.504,1.199,0.576,1.619L90.567,26.386z M99.371,25.594l0.504,0.181
		c-0.024,0.071-0.048,0.107-0.084,0.155c-0.216,1.271-0.659,2.53-1.319,3.61c0.527,0.6,1.139,1.079,1.822,1.379
		c-0.191,0.168-0.443,0.48-0.562,0.695c-0.648-0.336-1.224-0.814-1.728-1.402c-0.407,0.504-0.864,0.947-1.403,1.307
		c-0.132-0.18-0.359-0.408-0.552-0.539c0.563-0.372,1.056-0.852,1.464-1.416c-0.588-0.827-1.044-1.811-1.355-2.842l0.647-0.168
		c0.264,0.827,0.659,1.631,1.14,2.326c0.443-0.779,0.756-1.654,0.947-2.543h-3.059v5.289h-0.768V21.037h4.666v3.01
		c0,0.863-0.432,0.863-2.063,0.863c-0.024-0.204-0.144-0.491-0.239-0.695c0.312,0,0.611,0.012,0.839,0.012
		c0.659,0,0.708,0,0.708-0.192v-2.254h-3.143v3.85h3.395L99.371,25.594z"/>
	<path fill="#231815" d="M107.113,29.852h5.001v0.815h-10.806v-0.815h4.953v-7.184h-4.365v-0.803h9.667v0.803h-4.45V29.852z"/>
	<path fill="#231815" d="M124.09,27.549v0.756h-4.978v2.327c0,1.007-0.575,1.019-2.794,1.019c-0.061-0.228-0.217-0.563-0.348-0.792
		c0.611,0.024,1.15,0.037,1.535,0.037c0.695,0,0.779,0,0.779-0.264v-2.327h-4.918v-0.756h4.918v-1.044l0.563,0.037
		c0.612-0.312,1.247-0.732,1.739-1.141h-5.217v-0.719h6.068l0.144-0.049l0.624,0.396c-0.036,0.061-0.108,0.096-0.18,0.107
		c-0.708,0.672-1.848,1.451-2.915,1.979v0.432H124.09z M114.436,23.244v1.932h-0.768v-2.663h1.871
		c-0.229-0.468-0.672-1.104-1.068-1.571l0.672-0.324c0.48,0.528,0.996,1.235,1.211,1.715l-0.348,0.18h2.543
		c-0.18-0.54-0.576-1.283-0.947-1.835l0.695-0.264c0.432,0.6,0.863,1.403,1.02,1.919l-0.42,0.18h2.1
		c0.467-0.552,1.055-1.391,1.379-1.967c0.756,0.276,0.852,0.335,0.947,0.396c-0.036,0.072-0.132,0.108-0.252,0.096
		c-0.3,0.432-0.731,0.995-1.151,1.475h1.955v2.663h-0.792v-1.932H114.436z"/>
	<path fill="#231815" d="M129.398,22.5v0.671h-4.282V22.5H129.398z M129.098,27.394v3.525h-2.759v0.564h-0.695v-4.09H129.098z
		 M129.086,24.131v0.659h-3.431v-0.659H129.086z M125.656,26.421v-0.659h3.431v0.659H125.656z M129.038,20.905v0.66h-3.322v-0.66
		H129.038z M128.391,28.078h-2.052v2.158h2.052V28.078z M136.186,27.549h-2.435c0.659,1.115,1.703,2.255,2.614,2.831
		c-0.168,0.144-0.432,0.42-0.563,0.623c-0.876-0.66-1.87-1.835-2.542-2.998v3.598h-0.78v-3.514
		c-0.708,1.223-1.727,2.338-2.734,2.962c-0.12-0.192-0.372-0.468-0.54-0.624c1.068-0.551,2.159-1.703,2.831-2.878h-2.446v-0.731
		h2.89v-1.127h-2.423v-4.702h5.674v4.702h-2.471v1.127h2.926V27.549z M130.801,21.661v1.343h1.703v-1.343H130.801z M130.801,23.664
		v1.355h1.703v-1.355H130.801z M134.975,23.003v-1.343h-1.752v1.343H134.975z M134.975,25.019v-1.355h-1.752v1.355H134.975z"/>
	<path fill="#231815" d="M139.971,25.535c0.396,0.371,1.475,1.511,1.715,1.822l-0.48,0.624c-0.215-0.359-0.791-1.103-1.234-1.655
		v5.289h-0.792v-5.637c-0.456,1.319-1.067,2.662-1.667,3.454c-0.096-0.216-0.3-0.54-0.432-0.72c0.695-0.887,1.475-2.53,1.906-3.957
		H137.2v-0.768h1.979V21.96c-0.588,0.168-1.199,0.324-1.774,0.456c-0.037-0.167-0.156-0.432-0.265-0.6
		c1.403-0.335,2.999-0.839,3.851-1.355l0.73,0.6c-0.035,0.036-0.071,0.048-0.131,0.048c-0.037,0-0.072,0-0.108-0.012
		c-0.407,0.216-0.923,0.419-1.511,0.611v2.279h1.666v0.768h-1.666V25.535z M145.2,30.572h3.082v0.72h-6.968v-0.72h3.083v-1.703
		h-2.399v-0.707h2.399v-1.523h-2.676v-0.72h6.262v0.72H145.2v1.523h2.494v0.707H145.2V30.572z M147.526,21.049v3.837h-5.373v-3.837
		H147.526z M146.747,24.179v-2.411h-3.838v2.411H146.747z"/>
</g>
<g>
</g>
<g>
</g>
<g>
</g>
<g>
</g>
<g>
</g>
<g>
</g>
</svg>
