<?xml version="1.0" encoding="utf-8"?>
<!-- Generator: Adobe Illustrator 16.0.4, SVG Export Plug-In . SVG Version: 6.00 Build 0)  -->
<svg version="1.2" baseProfile="tiny" id="レイヤー_1"
	 xmlns="http://www.w3.org/2000/svg" xmlns:xlink="http://www.w3.org/1999/xlink" x="0px" y="0px" width="184.252px"
	 height="42.52px" viewBox="0 0 184.252 42.52" xml:space="preserve">
<path display="none" fill="#D8281C" d="M183.752,0.5v41.52H0.5V0.5H183.752 M184.252,0H0v42.52h184.252V0L184.252,0z"/>
<g>
	<path fill="#231815" d="M17.111,10.944H7.924v2.495c0,1.823-0.168,4.45-1.295,6.201c-0.144-0.132-0.492-0.372-0.684-0.456
		c1.08-1.679,1.175-4.042,1.175-5.745v-3.262h4.426V8.473l1.067,0.072c-0.012,0.084-0.084,0.144-0.24,0.167v1.463h4.737V10.944z
		 M14.461,14.842c1.103,1.379,2.314,3.226,2.794,4.426l-0.792,0.396c-0.12-0.324-0.3-0.708-0.516-1.127
		c-2.698,0.18-5.565,0.336-7.34,0.432c-0.024,0.096-0.096,0.144-0.18,0.156l-0.372-0.972l1.439-0.06
		c0.719-1.691,1.559-4.377,2.015-6.32l1.08,0.288c-0.024,0.084-0.132,0.144-0.288,0.156c-0.468,1.751-1.259,4.162-1.967,5.853
		l5.205-0.24c-0.516-0.899-1.175-1.859-1.799-2.65L14.461,14.842z"/>
	<path fill="#231815" d="M28.153,18.691h-5.829v0.588h-0.755v-2.542l0.983,0.072c-0.012,0.084-0.072,0.132-0.228,0.156v1.067h2.147
		v-1.583l0.996,0.06c-0.012,0.084-0.084,0.144-0.24,0.168v1.355h2.17v-1.343l0.996,0.072c-0.012,0.072-0.072,0.132-0.24,0.156
		V18.691z M31.823,14.794h-8.467v0.923h7.412l0.18-0.024l0.456,0.096c-0.012,0.06-0.024,0.156-0.048,0.228
		c-0.18,2.147-0.348,2.986-0.671,3.31c-0.24,0.24-0.492,0.3-1.176,0.3c-0.312,0-0.719-0.012-1.151-0.036
		c-0.012-0.228-0.096-0.516-0.204-0.72c0.624,0.072,1.235,0.072,1.439,0.072c0.228,0,0.336-0.024,0.444-0.108
		c0.204-0.204,0.36-0.875,0.504-2.482h-7.988V9.457h2.818c0.168-0.348,0.336-0.744,0.432-1.031l1.031,0.228
		c-0.024,0.072-0.108,0.12-0.24,0.12c-0.096,0.192-0.24,0.444-0.384,0.684H30v3.802h-6.644v0.887h8.467V14.794z M29.197,10.081
		h-5.841v0.983h5.841V10.081z M23.356,12.635h5.841V11.64h-5.841V12.635z"/>
	<path fill="#231815" d="M46.571,12.827h-4.689c0.779,2.867,2.327,5.073,4.881,6.021c-0.204,0.18-0.468,0.516-0.6,0.755
		c-2.507-1.031-4.03-3.154-4.917-6.044c-0.552,2.375-1.859,4.725-4.953,6.057c-0.12-0.216-0.372-0.504-0.576-0.684
		c3.166-1.283,4.354-3.682,4.809-6.105h-4.629V12h4.761c0.156-1.248,0.144-2.471,0.156-3.514l1.127,0.06
		c-0.012,0.108-0.108,0.167-0.264,0.204c-0.012,0.948-0.024,2.075-0.168,3.25h5.062V12.827z"/>
	<path fill="#231815" d="M61.391,15.549v0.756h-4.978v2.327c0,1.007-0.576,1.02-2.794,1.02c-0.06-0.228-0.216-0.564-0.348-0.792
		c0.612,0.024,1.151,0.036,1.535,0.036c0.696,0,0.78,0,0.78-0.264v-2.327h-4.917v-0.756h4.917v-1.043l0.563,0.036
		c0.612-0.312,1.247-0.731,1.739-1.14h-5.217v-0.719h6.069l0.144-0.048l0.624,0.396c-0.036,0.06-0.108,0.096-0.18,0.108
		c-0.708,0.672-1.847,1.451-2.915,1.979v0.432H61.391z M51.736,11.244v1.931h-0.768v-2.663h1.871
		c-0.228-0.468-0.672-1.104-1.067-1.571l0.671-0.324c0.48,0.528,0.996,1.235,1.211,1.715l-0.348,0.18h2.542
		c-0.18-0.54-0.576-1.283-0.947-1.835l0.695-0.264c0.432,0.6,0.864,1.403,1.02,1.919l-0.42,0.18h2.099
		c0.468-0.552,1.055-1.391,1.379-1.967c0.756,0.276,0.852,0.335,0.948,0.396c-0.036,0.072-0.132,0.108-0.252,0.096
		c-0.3,0.432-0.731,0.995-1.151,1.475h1.955v2.663h-0.792v-1.931H51.736z"/>
	<path fill="#231815" d="M16.979,24.827H12.29c0.779,2.867,2.327,5.073,4.881,6.021c-0.204,0.18-0.468,0.516-0.6,0.755
		c-2.507-1.031-4.03-3.154-4.917-6.044c-0.552,2.374-1.859,4.725-4.953,6.057c-0.12-0.217-0.372-0.504-0.576-0.684
		c3.166-1.283,4.354-3.683,4.809-6.105H6.305V24h4.761c0.156-1.248,0.144-2.471,0.156-3.514l1.127,0.06
		c-0.012,0.108-0.108,0.167-0.264,0.204c-0.012,0.948-0.024,2.075-0.168,3.25h5.062V24.827z"/>
	<path fill="#231815" d="M29.003,27.549v0.756h-4.978v2.326c0,1.008-0.576,1.02-2.794,1.02c-0.06-0.228-0.216-0.563-0.348-0.791
		c0.612,0.023,1.151,0.035,1.535,0.035c0.696,0,0.78,0,0.78-0.264v-2.326h-4.917v-0.756h4.917v-1.043l0.563,0.035
		c0.612-0.312,1.247-0.73,1.739-1.139h-5.217v-0.72h6.069l0.144-0.048l0.624,0.396c-0.036,0.06-0.108,0.097-0.18,0.108
		c-0.708,0.672-1.847,1.451-2.915,1.979v0.432H29.003z M19.349,23.244v1.931h-0.768v-2.662h1.871
		c-0.228-0.468-0.672-1.104-1.067-1.571l0.671-0.324c0.48,0.528,0.996,1.235,1.211,1.715l-0.348,0.18h2.542
		c-0.18-0.54-0.576-1.283-0.947-1.835l0.695-0.264c0.432,0.6,0.864,1.403,1.02,1.919l-0.42,0.18h2.099
		c0.468-0.552,1.055-1.391,1.379-1.967c0.756,0.276,0.852,0.335,0.948,0.396c-0.036,0.072-0.132,0.108-0.252,0.096
		c-0.3,0.432-0.731,0.995-1.151,1.475h1.955v2.662h-0.792v-1.931H19.349z"/>
	<path fill="#231815" d="M33.496,20.965l0.516,0.312c-0.012,0.036-0.06,0.084-0.096,0.108c-0.312,0.912-0.779,2.124-1.187,3.118
		c0.923,0.984,1.247,1.824,1.247,2.592c0,1.727-1.055,1.678-1.991,1.643c-0.012-0.204-0.096-0.516-0.204-0.707
		c0.18,0.023,0.36,0.035,0.516,0.035c0.468,0,0.936,0,0.936-1.02c-0.012-0.672-0.335-1.486-1.259-2.446
		c0.384-0.911,0.756-2.027,1.02-2.867h-1.715v9.895h-0.732V21.001h2.819L33.496,20.965z M38.88,30.307
		c0,0.301,0.036,0.349,0.324,0.349h0.9c0.276,0,0.324-0.192,0.348-1.523c0.168,0.144,0.492,0.276,0.708,0.324
		c-0.084,1.535-0.276,1.931-0.971,1.931h-1.092c-0.792,0-0.983-0.229-0.983-1.08v-3.31h-1.511c-0.156,2.219-0.624,3.79-2.914,4.63
		c-0.084-0.18-0.288-0.48-0.456-0.624c2.015-0.696,2.459-1.967,2.603-4.006h-1.667v-0.743h6.896v0.743H38.88V30.307z M34.815,22.644
		v1.499h-0.744v-2.207h3.022v-1.463l1.02,0.06c-0.012,0.084-0.072,0.144-0.228,0.168v1.235h3.094v2.195h-0.756v-1.487H34.815z
		 M40.02,24.754h-4.989v-0.719h4.989V24.754z"/>
	<path fill="#231815" d="M48.026,29.852h5.001v0.815H42.221v-0.815h4.953v-7.184h-4.365v-0.804h9.667v0.804h-4.45V29.852z"/>
	<path fill="#231815" d="M65.003,27.549v0.756h-4.978v2.326c0,1.008-0.576,1.02-2.794,1.02c-0.06-0.228-0.216-0.563-0.348-0.791
		c0.612,0.023,1.151,0.035,1.535,0.035c0.696,0,0.78,0,0.78-0.264v-2.326h-4.917v-0.756h4.917v-1.043l0.563,0.035
		c0.612-0.312,1.247-0.73,1.739-1.139h-5.217v-0.72h6.069l0.144-0.048l0.624,0.396c-0.036,0.06-0.108,0.097-0.18,0.108
		c-0.708,0.672-1.847,1.451-2.915,1.979v0.432H65.003z M55.349,23.244v1.931h-0.768v-2.662h1.871
		c-0.228-0.468-0.672-1.104-1.067-1.571l0.671-0.324c0.48,0.528,0.996,1.235,1.211,1.715l-0.348,0.18h2.542
		c-0.18-0.54-0.576-1.283-0.947-1.835l0.695-0.264c0.432,0.6,0.864,1.403,1.02,1.919l-0.42,0.18h2.099
		c0.468-0.552,1.055-1.391,1.379-1.967c0.756,0.276,0.852,0.335,0.948,0.396c-0.036,0.072-0.132,0.108-0.252,0.096
		c-0.3,0.432-0.731,0.995-1.151,1.475h1.955v2.662h-0.792v-1.931H55.349z"/>
	<path fill="#231815" d="M70.347,29.888h-2.531v1.056h-0.72V26.83c-0.216,0.444-0.444,0.852-0.708,1.2
		c-0.096-0.181-0.324-0.504-0.456-0.66c0.875-1.211,1.439-3.311,1.763-5.517h-1.571v-0.756h4.665v0.756h-2.314
		c-0.156,0.996-0.36,1.979-0.624,2.902h2.495V29.888z M69.615,29.157v-3.67h-1.799v3.67H69.615z M77.207,25.571v0.768h-1.499v5.277
		H74.94v-5.277h-1.919c-0.096,1.906-0.552,3.873-2.398,5.301c-0.144-0.132-0.432-0.359-0.636-0.468
		c1.739-1.319,2.171-3.13,2.254-4.833h-1.511v-0.768h1.535v-3.754h-1.164v-0.755h5.877v0.755h-1.271v3.754H77.207z M73.034,25.571
		h1.907v-3.754h-1.907V25.571z"/>
	<path fill="#231815" d="M86.485,30.404c0,0.312,0.06,0.36,0.384,0.36h1.043c0.335,0,0.396-0.229,0.432-1.74
		c0.18,0.145,0.516,0.276,0.744,0.336c-0.084,1.728-0.288,2.147-1.091,2.147h-1.248c-0.852,0-1.104-0.228-1.104-1.104v-2.639h-2.638
		c-0.48,1.812-1.56,3.143-4.426,3.851c-0.072-0.192-0.276-0.504-0.444-0.66c2.507-0.588,3.538-1.667,4.006-3.19h-3.25V27.01h3.43
		c0.096-0.528,0.156-1.092,0.204-1.703c0.815,0.06,0.947,0.071,1.067,0.084c0,0.096-0.096,0.155-0.24,0.18
		c-0.048,0.504-0.108,0.982-0.18,1.439h3.311V30.404z M82.551,22.836c-0.012,0.084-0.096,0.144-0.24,0.156
		c-0.36,1.56-1.067,2.698-3.646,3.298c-0.072-0.191-0.276-0.491-0.432-0.646c2.351-0.48,3.01-1.439,3.274-2.927L82.551,22.836z
		 M79.385,22.572V24h-0.804V21.84h4.618v-1.379l1.055,0.06c-0.012,0.083-0.072,0.144-0.24,0.167v1.151h4.666V24h-0.828v-1.427
		H79.385z M84.59,22.668l1.031,0.072c-0.012,0.084-0.072,0.144-0.24,0.167v2.052c0,0.264,0.084,0.323,0.588,0.323h1.763
		c0.348,0,0.42-0.097,0.456-0.731c0.167,0.119,0.492,0.216,0.708,0.275c-0.084,0.9-0.324,1.14-1.08,1.14h-1.919
		c-1.055,0-1.307-0.204-1.307-1.007V22.668z"/>
	<path fill="#231815" d="M93.063,25.51c0.373,0.348,1.523,1.584,1.763,1.883l-0.479,0.637c-0.216-0.373-0.827-1.152-1.284-1.716
		v5.302h-0.792v-5.625c-0.516,1.318-1.211,2.65-1.871,3.441c-0.096-0.216-0.288-0.539-0.42-0.719
		c0.768-0.876,1.643-2.495,2.135-3.935h-1.967v-0.768h2.123v-2.087c-0.624,0.168-1.283,0.324-1.907,0.444
		c-0.036-0.156-0.156-0.42-0.252-0.587c1.475-0.324,3.178-0.816,4.09-1.308l0.719,0.6c-0.048,0.048-0.06,0.048-0.228,0.048
		c-0.432,0.204-1.007,0.396-1.631,0.587v2.303h1.74v0.768h-1.74V25.51z M101.292,27.993l-1.859,0.324v3.299h-0.815v-3.154
		l-3.862,0.671l-0.131-0.755l3.993-0.696v-7.184l1.056,0.072c-0.012,0.084-0.084,0.144-0.24,0.168v6.8l1.715-0.301L101.292,27.993z
		 M95.618,24.551c0.828,0.479,1.836,1.199,2.327,1.738l-0.575,0.553c-0.469-0.553-1.451-1.296-2.291-1.799L95.618,24.551z
		 M96.038,21.337c0.744,0.468,1.656,1.175,2.088,1.703l-0.624,0.515c-0.408-0.515-1.296-1.259-2.052-1.75L96.038,21.337z"/>
	<path fill="#231815" d="M103.301,22.92c0,1.067-0.205,2.363-0.696,3.13c-0.444-0.265-0.516-0.3-0.6-0.336
		c0.432-0.659,0.624-1.883,0.647-2.89L103.301,22.92z M103.768,20.461l1.02,0.072c-0.012,0.084-0.072,0.144-0.228,0.156v10.902
		h-0.792V20.461z M105.616,24.347c-0.168-0.456-0.54-1.212-0.863-1.763l0.551-0.276c0.348,0.54,0.732,1.247,0.888,1.691
		L105.616,24.347z M109.825,24.502h3.347v0.684h-7.424v-0.684h3.237v-0.875h-2.338v-0.624h2.338v-0.815h-2.818v-0.648h2.818v-1.079
		l1.08,0.072c-0.012,0.084-0.072,0.144-0.24,0.168v0.839h2.927v0.648h-2.927v0.815h2.436v0.624h-2.436V24.502z M112.092,25.991
		v4.761c0,0.78-0.312,0.864-1.979,0.864c-0.036-0.205-0.144-0.492-0.252-0.696c0.336,0.013,0.647,0.024,0.876,0.024
		c0.492,0,0.551,0,0.551-0.192v-1.067h-3.729v1.907h-0.779v-5.601H112.092z M111.288,26.65h-3.729v0.899h3.729V26.65z
		 M107.558,29.073h3.729v-0.912h-3.729V29.073z"/>
	<path fill="#231815" d="M117.244,22.392v1.343h2.411v0.708h-5.565v-0.708h2.398v-1.343h-1.919v-0.695h1.919v-1.211l0.983,0.06
		c-0.012,0.084-0.072,0.144-0.228,0.156v0.996h1.907v0.695H117.244z M117.448,26.362c0.252-0.479,0.563-1.271,0.719-1.787
		l0.852,0.288c-0.035,0.071-0.119,0.108-0.252,0.108c-0.191,0.42-0.491,1.055-0.768,1.486h1.439v0.708h-2.207v1.392h2.052v0.707
		h-2.052v2.363h-0.755v-2.363h-2.063v-0.707h2.063v-1.392h-2.219v-0.708h3.406L117.448,26.362z M115.481,26.386
		c-0.061-0.433-0.288-1.128-0.553-1.655l0.625-0.168c0.264,0.516,0.503,1.199,0.575,1.619L115.481,26.386z M124.284,25.594
		l0.504,0.18c-0.023,0.072-0.049,0.108-0.084,0.156c-0.216,1.271-0.66,2.531-1.319,3.609c0.528,0.601,1.14,1.08,1.823,1.38
		c-0.192,0.168-0.443,0.479-0.564,0.696c-0.646-0.336-1.223-0.816-1.727-1.404c-0.408,0.504-0.863,0.947-1.403,1.308
		c-0.132-0.18-0.36-0.407-0.552-0.54c0.564-0.371,1.056-0.852,1.463-1.414c-0.588-0.828-1.043-1.812-1.355-2.844l0.648-0.168
		c0.264,0.828,0.66,1.632,1.139,2.328c0.444-0.78,0.756-1.656,0.948-2.543h-3.059v5.289h-0.768v-10.59h4.665v3.01
		c0,0.863-0.432,0.863-2.062,0.863c-0.023-0.203-0.145-0.492-0.24-0.695c0.312,0,0.612,0.012,0.84,0.012c0.66,0,0.708,0,0.708-0.191
		v-2.255h-3.143v3.85h3.394L124.284,25.594z"/>
	<path fill="#231815" d="M132.026,29.852h5.002v0.815h-10.807v-0.815h4.953v-7.184h-4.365v-0.804h9.666v0.804h-4.449V29.852z"/>
	<path fill="#231815" d="M149.003,27.549v0.756h-4.978v2.326c0,1.008-0.576,1.02-2.795,1.02c-0.06-0.228-0.215-0.563-0.348-0.791
		c0.612,0.023,1.152,0.035,1.535,0.035c0.696,0,0.78,0,0.78-0.264v-2.326h-4.917v-0.756h4.917v-1.043l0.563,0.035
		c0.611-0.312,1.247-0.73,1.739-1.139h-5.218v-0.72h6.069l0.144-0.048l0.624,0.396c-0.036,0.06-0.108,0.097-0.181,0.108
		c-0.707,0.672-1.847,1.451-2.914,1.979v0.432H149.003z M139.348,23.244v1.931h-0.768v-2.662h1.871
		c-0.228-0.468-0.672-1.104-1.066-1.571l0.671-0.324c0.479,0.528,0.995,1.235,1.212,1.715l-0.348,0.18h2.542
		c-0.18-0.54-0.575-1.283-0.947-1.835l0.695-0.264c0.432,0.6,0.864,1.403,1.02,1.919l-0.42,0.18h2.099
		c0.469-0.552,1.056-1.391,1.379-1.967c0.756,0.276,0.852,0.335,0.948,0.396c-0.036,0.072-0.132,0.108-0.252,0.096
		c-0.3,0.432-0.731,0.995-1.151,1.475h1.955v2.662h-0.791v-1.931H139.348z"/>
	<path fill="#231815" d="M161.063,28.004v0.709h-2.782v1.979c0,0.467-0.108,0.684-0.491,0.803c-0.372,0.121-1.031,0.121-2.1,0.121
		c-0.035-0.217-0.156-0.504-0.264-0.721c0.492,0.013,0.947,0.024,1.283,0.024c0.695,0,0.779,0,0.779-0.239v-1.967h-7.304v-0.709
		h7.304V27.01h-6.02v-3.946h3.729v-0.888h-4.737V21.48h4.737v-0.995l1.031,0.072c-0.013,0.084-0.071,0.144-0.228,0.168v0.755h4.833
		v0.696h-4.833v0.888h3.85v3.946h-2.158v0.012l0.814,0.035c-0.012,0.084-0.072,0.145-0.228,0.168v0.779H161.063z M153.987,31.063
		c-0.383-0.504-1.211-1.234-1.931-1.727l0.6-0.443c0.72,0.467,1.56,1.163,1.968,1.666L153.987,31.063z M152.237,23.675v1.056h2.962
		v-1.056H152.237z M152.237,25.319v1.079h2.962v-1.079H152.237z M159.061,23.675h-3.059v1.056h3.059V23.675z M159.061,26.398v-1.079
		h-3.059v1.079H159.061z"/>
	<path fill="#231815" d="M164.68,27.874c0.672-0.168,1.367-0.348,2.051-0.527l0.084,0.707c-1.56,0.468-3.227,0.947-4.281,1.223
		c-0.013,0.097-0.072,0.168-0.145,0.192l-0.396-0.923c0.517-0.121,1.164-0.289,1.884-0.469v-5.289h-1.8v-0.78h4.559v0.78h-1.955
		V27.874z M173.196,23.543h-1.141c-0.419,2.003-1.031,3.635-1.967,4.93c0.816,1.092,1.871,1.931,3.191,2.435
		c-0.192,0.167-0.444,0.491-0.576,0.708c-1.295-0.541-2.326-1.38-3.154-2.471c-0.947,1.079-2.171,1.883-3.742,2.494
		c-0.084-0.204-0.287-0.552-0.432-0.72c1.571-0.563,2.771-1.38,3.693-2.471c-0.659-1.056-1.162-2.314-1.547-3.718
		c-0.312,0.636-0.672,1.211-1.055,1.667c-0.156-0.132-0.469-0.36-0.672-0.479c1.043-1.199,1.859-3.311,2.326-5.445l1.031,0.24
		c-0.023,0.096-0.107,0.132-0.264,0.132c-0.155,0.647-0.336,1.295-0.551,1.919h4.857V23.543z M168.05,23.543l-0.024,0.061
		c0.336,1.559,0.852,2.962,1.571,4.149c0.743-1.14,1.259-2.519,1.606-4.21H168.05z"/>
</g>
<g>
</g>
<g>
</g>
<g>
</g>
<g>
</g>
<g>
</g>
<g>
</g>
</svg>
